<?xml version="1.0" encoding="iso-8859-1"?>
<!-- Uploaded to: SVG Repo, www.svgrepo.com, Generator: SVG Repo Mixer Tools -->
<svg height="210px" width="210px" version="1.1" id="Layer_1" xmlns="http://www.w3.org/2000/svg" xmlns:xlink="http://www.w3.org/1999/xlink" 
	 viewBox="0 0 496.2 496.2" xml:space="preserve">
<path style="fill:#FABC3D;" d="M496.2,248.1C496.2,111.1,385.1,0,248.1,0S0,111.1,0,248.1s111.1,248.1,248.1,248.1
	S496.2,385.1,496.2,248.1z"/>
<polygon points="137.3,167.2 144.2,167.2 155.2,146.1 162.4,141.4 201.6,144.5 245.4,152.4 262.3,166.1 260.7,237.7 243.9,253 
	200,258.3 160.5,258.8 153.7,256.1 142.1,234.6 137.3,234.6 "/>
<path style="fill:#363638;" d="M155.2,146.1l7.2-4.7l39.1,3.2l43.9,7.9l16.8,13.7c0,0,4.9,19.6,4.2,36.1
	c-0.9,23.2-5.8,35.5-5.8,35.5l-16.8,15.3l-43.9,5.3l-39.5,0.5l-6.8-2.6L155.2,146.1z"/>
<path style="fill:#232228;" d="M155.2,146.1l7.2-4.7c65.8,0,83,11.1,83,11.1l-1.6,100.6c0,0-11.4,8.2-83.4,5.8
	c-6.8-0.2-6.8-2.6-6.8-2.6L155.2,146.1z"/>
<path style="fill:#202022;" d="M206.3,313.7v179c7.2,1.2,14.5,2.1,21.9,2.7V313.7H206.3z"/>
<path style="fill:#484849;" d="M210.2,313.7v179.6c1.5,0.2,3.1,0.4,4.6,0.7V313.7H210.2z"/>
<path style="fill:#1F1E23;" d="M141,146.3c0,0-44.8-16.6-76.3,16.6v35.6l0,0v35.9C96.3,267.5,141,251,141,251v-52.2l0,0V146.3z"/>
<path style="fill:#0D0D0F;" d="M141,146.3c0,0-13.2-4.9-30.3-4L109.4,255c17.7,1.2,31.6-4,31.6-4v-52.2l0,0V146.3z"/>
<path style="fill:#18171C;" d="M242.6,251.5c-0.2-0.3-0.6-0.4-0.9-0.4c0,0-8.6-4.6-23.3-2.8c-14.7,1.8-22.5,4.4-22.5,4.4
	c-0.3,0-0.6,0.2-0.9,0.4c-0.2,0.3-0.3,0.6-0.3,0.9l7.4,62.1c0.1,0.6,0.6,1,1.2,1h27.9c0.6,0,1.1-0.4,1.2-1l10.5-63.7
	C243,252.1,242.9,251.7,242.6,251.5z"/>
<path style="fill:#202022;" d="M334.1,313.7v167.2c7.5-2.8,14.8-5.9,21.9-9.3V313.7H334.1z"/>
<path style="fill:#484849;" d="M338.1,313.7v165.7c1.6-0.6,3.1-1.2,4.6-1.9V313.7H338.1z"/>
<circle style="fill:#363638;" cx="344.6" cy="200.6" r="60.7"/>
<path style="fill:#18171C;" d="M321.4,249.7c-2,2.1,8.6,66.4,8.6,66.4c0.1,0.6,0.6,1,1.2,1h27.9c0.6,0,1.1-0.4,1.2-1
	c0,0,11.1-64.5,9.1-66.6s-14.9,3.3-24.4,3.3C335.5,252.8,323.3,247.7,321.4,249.7z"/>
<circle style="fill:#727272;" cx="344.6" cy="200.6" r="43.1"/>
<circle style="fill:#363638;" cx="344.6" cy="200.6" r="36.9"/>
<circle cx="344.6" cy="200.6" r="13.4"/>
</svg>