<?xml version="1.0" encoding="iso-8859-1"?>
<!-- Uploaded to: SVG Repo, www.svgrepo.com, Generator: SVG Repo Mixer Tools -->
<svg version="1.1" id="Layer_1" xmlns="http://www.w3.org/2000/svg" xmlns:xlink="http://www.w3.org/1999/xlink" 
	 viewBox="0 0 496.2 496.2" xml:space="preserve">
<path style="fill:#32BEA6;" d="M496.2,248.1C496.2,111.1,385.1,0,248.1,0S0,111.1,0,248.1s111.1,248.1,248.1,248.1
	S496.2,385.1,496.2,248.1z"/>
<path style="fill:#3A3A38;" d="M238.3,405.2v90.7c3.2,0.1,6.5,0.2,9.8,0.2c3.3,0,6.5-0.1,9.7-0.2v-90.7L238.3,405.2L238.3,405.2z"/>
<path style="fill:#CBCBC9;" d="M265.2,215.4V92.6c0-0.5-0.1-0.9-0.4-1.3l-6.4-10.2l6.1-8.1c0.7-1,0.7-2.4-0.2-3.2l-14.7-15.2
	c-0.5-0.5-1.1-0.8-1.8-0.8l0,0c-0.7,0-1.3,0.3-1.8,0.8l-14.6,15.2c-0.8,0.9-0.9,2.3-0.2,3.2l6.2,8.2l-6.1,10.1
	c-0.2,0.4-0.4,0.8-0.4,1.3v122.8H265.2z"/>
<path style="fill:#DDDDDB;" d="M247.9,53.7L247.9,53.7c-0.7,0-1.3,0.3-1.8,0.8l-14.6,15.2c-0.8,0.9-0.9,2.3-0.2,3.2l6.2,8.2
	l-6.1,10.1c-0.2,0.4-0.4,0.8-0.4,1.3v122.8h16.9L247.9,53.7L247.9,53.7z"/>
<path style="fill:#3A3A38;" d="M288.3,214c-0.9-1-2.3-1.6-3.7-1.6h-73.1c-1.4,0-2.7,0.6-3.7,1.6c-0.9,1-1.4,2.4-1.3,3.8l17.8,207
	c0.2,2.6,2.4,4.6,5,4.6h37.4c2.6,0,4.8-2,5-4.6l17.8-207C289.8,216.4,289.3,215,288.3,214z"/>
<path style="fill:#5B5B5B;" d="M211.5,212.4c-1.4,0-2.7,0.6-3.7,1.6c-0.9,1-1.4,2.4-1.3,3.8l17.8,207c0.2,2.6,2.4,4.6,5,4.6h18.5
	v-217L211.5,212.4L211.5,212.4z"/>
<path style="fill:#EAEAEA;" d="M265,71.4c0-0.6-0.3-1.2-0.7-1.7l-14.7-15.2c-0.5-0.5-1.1-0.8-1.8-0.8l0,0c-0.7,0-1.3,0.3-1.8,0.8
	l-14.6,15.2c-0.4,0.5-0.7,1.1-0.7,1.7H265z"/>
<g>
	<rect x="231" y="129.1" style="fill:#3A3A38;" width="34.2" height="6.7"/>
	<rect x="231" y="97.9" style="fill:#3A3A38;" width="34.2" height="9.2"/>
</g>
</svg>