<?xml version="1.0" encoding="iso-8859-1"?>
<!-- Uploaded to: SVG Repo, www.svgrepo.com, Generator: SVG Repo Mixer Tools -->
<svg height="210px" width="210px" version="1.1" id="Layer_1" xmlns="http://www.w3.org/2000/svg" xmlns:xlink="http://www.w3.org/1999/xlink" 
	 viewBox="0 0 496.2 496.2" xml:space="preserve">
<path style="fill:#25B7D3;" d="M496.2,248.1C496.2,111.1,385.1,0,248.1,0S0,111.1,0,248.1s111.1,248.1,248.1,248.1
	S496.2,385.1,496.2,248.1z"/>
<path style="fill:#878787;" d="M194.5,128.1c0-33.8,24-55.1,53.6-55.1s53.6,21.3,53.6,55.1c0,41.8-24,67.2-53.6,67.2
	S194.5,169.9,194.5,128.1z"/>
<g>
	<circle style="fill:#707070;" cx="248.1" cy="82" r="3.5"/>
	<circle style="fill:#707070;" cx="236.3" cy="82" r="3.5"/>
	<circle style="fill:#707070;" cx="224.6" cy="105.5" r="3.5"/>
	<circle style="fill:#707070;" cx="248.1" cy="105.5" r="3.5"/>
	<circle style="fill:#707070;" cx="212.8" cy="105.5" r="3.5"/>
	<circle style="fill:#707070;" cx="236.3" cy="105.5" r="3.5"/>
	<circle style="fill:#707070;" cx="224.6" cy="94.1" r="3.5"/>
	<circle style="fill:#707070;" cx="248.1" cy="94.1" r="3.5"/>
	<circle style="fill:#707070;" cx="236.3" cy="94.1" r="3.5"/>
	<circle style="fill:#707070;" cx="259.7" cy="82" r="3.5"/>
	<circle style="fill:#707070;" cx="271.6" cy="105.5" r="3.5"/>
	<circle style="fill:#707070;" cx="259.7" cy="105.5" r="3.5"/>
	<path style="fill:#707070;" d="M286.8,105.5c0,2-1.6,3.5-3.5,3.5c-2,0-3.5-1.6-3.5-3.5c0-2,1.6-3.5,3.5-3.5
		S286.8,103.6,286.8,105.5z"/>
	<circle style="fill:#707070;" cx="271.6" cy="94.1" r="3.5"/>
	<circle style="fill:#707070;" cx="259.7" cy="94.1" r="3.5"/>
	<circle style="fill:#707070;" cx="218.8" cy="117.1" r="3.5"/>
	<circle style="fill:#707070;" cx="242.3" cy="117.1" r="3.5"/>
	<circle style="fill:#707070;" cx="207" cy="117.1" r="3.5"/>
	<circle style="fill:#707070;" cx="230.5" cy="117.1" r="3.5"/>
	<path style="fill:#707070;" d="M269.3,117.1c0,2-1.6,3.5-3.5,3.5c-2,0-3.5-1.6-3.5-3.5c0-2,1.6-3.5,3.5-3.5
		S269.3,115.2,269.3,117.1z"/>
	<circle style="fill:#707070;" cx="289.3" cy="117.1" r="3.5"/>
	<path style="fill:#707070;" d="M257.5,117.1c0,2-1.6,3.5-3.5,3.5c-2,0-3.5-1.6-3.5-3.5c0-2,1.6-3.5,3.5-3.5
		S257.5,115.2,257.5,117.1z"/>
	<circle style="fill:#707070;" cx="277.4" cy="117.1" r="3.5"/>
	<circle style="fill:#707070;" cx="201.1" cy="142.9" r="3.5"/>
	<circle style="fill:#707070;" cx="224.6" cy="142.9" r="3.5"/>
	<circle style="fill:#707070;" cx="248.1" cy="142.9" r="3.5"/>
	<circle style="fill:#707070;" cx="212.8" cy="142.9" r="3.5"/>
	<circle style="fill:#707070;" cx="236.3" cy="142.9" r="3.5"/>
	<circle style="fill:#707070;" cx="271.6" cy="142.9" r="3.5"/>
	<circle style="fill:#707070;" cx="295.1" cy="142.9" r="3.5"/>
	<circle style="fill:#707070;" cx="259.7" cy="142.9" r="3.5"/>
	<path style="fill:#707070;" d="M286.8,142.9c0,2-1.6,3.5-3.5,3.5c-2,0-3.5-1.6-3.5-3.5c0-2,1.6-3.5,3.5-3.5
		S286.8,140.9,286.8,142.9z"/>
	<circle style="fill:#707070;" cx="218.8" cy="154.6" r="3.5"/>
	<circle style="fill:#707070;" cx="242.3" cy="154.6" r="3.5"/>
	<circle style="fill:#707070;" cx="207" cy="154.6" r="3.5"/>
	<circle style="fill:#707070;" cx="230.5" cy="154.6" r="3.5"/>
	<path style="fill:#707070;" d="M269.3,154.6c0,2-1.6,3.5-3.5,3.5c-2,0-3.5-1.6-3.5-3.5s1.6-3.5,3.5-3.5S269.3,152.7,269.3,154.6z"
		/>
	<circle style="fill:#707070;" cx="289.3" cy="154.6" r="3.5"/>
	<path style="fill:#707070;" d="M257.5,154.6c0,2-1.6,3.5-3.5,3.5c-2,0-3.5-1.6-3.5-3.5s1.6-3.5,3.5-3.5S257.5,152.7,257.5,154.6z"
		/>
	<circle style="fill:#707070;" cx="277.4" cy="154.6" r="3.5"/>
	<circle style="fill:#707070;" cx="224.6" cy="165.4" r="3.5"/>
	<circle style="fill:#707070;" cx="248.1" cy="165.4" r="3.5"/>
	<circle style="fill:#707070;" cx="212.8" cy="165.4" r="3.5"/>
	<circle style="fill:#707070;" cx="236.3" cy="165.4" r="3.5"/>
	<circle style="fill:#707070;" cx="271.6" cy="165.4" r="3.5"/>
	<circle style="fill:#707070;" cx="259.7" cy="165.4" r="3.5"/>
	<path style="fill:#707070;" d="M286.8,165.4c0,2-1.6,3.5-3.5,3.5c-2,0-3.5-1.6-3.5-3.5c0-2,1.6-3.5,3.5-3.5
		S286.8,163.5,286.8,165.4z"/>
</g>
<g>
	<path style="fill:#ADADAC;" d="M290,171.9c-11.7,1.4-26.8,2.7-43.6,2.7c-15.4,0-29.2-1.1-40.1-2.3c3.3,4.9,7.1,9.1,11.5,12.6
		c8.5,0.7,18.2,1.2,28.6,1.2c11.8,0,22.7-0.6,32.2-1.4C283,181.1,286.8,176.9,290,171.9z"/>
	<path style="fill:#ADADAC;" d="M301.6,133.1c0.1-1.6,0.1-3.3,0.1-5c0-2.2-0.1-4.3-0.3-6.4c-12,1.9-31.8,4.3-55,4.3
		c-21.7,0-40-2.1-51.7-3.9c-0.2,2-0.3,4-0.3,6.1c0,1.8,0.1,3.6,0.1,5.3c12.1,1.8,30.2,3.8,51.8,3.8
		C269.5,137.2,289.2,135,301.6,133.1z"/>
</g>
<path style="fill:#3A3A38;" d="M283.2,180.2c0,0-13.2,4.8-35.1,4.8s-35.1-4.8-35.1-4.8l14,237.2l0,0c0.1,3.2,9.5,5.8,21.1,5.8
	s21-2.6,21.1-5.8l0,0L283.2,180.2z"/>
<path style="fill:#545454;" d="M248.1,185c-21.9,0-35.1-4.8-35.1-4.8l14,237.2l0,0c0.1,3.2,9.5,5.8,21.1,5.8V185z"/>
<circle style="fill:#3A3A38;" cx="248.1" cy="218.9" r="9.6"/>
<circle style="fill:#727270;" cx="248.1" cy="218.9" r="6.3"/>
</svg>